<svg width="1024" height="1024" viewBox="0 0 1024 1024" fill="none" xmlns="http://www.w3.org/2000/svg">
  <defs>
    <linearGradient id="bg" x1="120" y1="108" x2="906" y2="930" gradientUnits="userSpaceOnUse">
      <stop offset="0" stop-color="#16121F" />
      <stop offset="0.38" stop-color="#111827" />
      <stop offset="0.7" stop-color="#1C1130" />
      <stop offset="1" stop-color="#090B12" />
    </linearGradient>
    <radialGradient id="glowA" cx="0" cy="0" r="1" gradientUnits="userSpaceOnUse" gradientTransform="translate(280 238) rotate(35.1) scale(470 360)">
      <stop stop-color="#FF6B9F" stop-opacity="0.55" />
      <stop offset="1" stop-color="#FF6B9F" stop-opacity="0" />
    </radialGradient>
    <radialGradient id="glowB" cx="0" cy="0" r="1" gradientUnits="userSpaceOnUse" gradientTransform="translate(786 786) rotate(180) scale(402 330)">
      <stop stop-color="#37D7FF" stop-opacity="0.48" />
      <stop offset="1" stop-color="#37D7FF" stop-opacity="0" />
    </radialGradient>
    <linearGradient id="cardBack" x1="292" y1="278" x2="710" y2="726" gradientUnits="userSpaceOnUse">
      <stop offset="0" stop-color="#1B2035" />
      <stop offset="1" stop-color="#111522" />
    </linearGradient>
    <linearGradient id="cardFront" x1="252" y1="234" x2="692" y2="760" gradientUnits="userSpaceOnUse">
      <stop offset="0" stop-color="#232A43" />
      <stop offset="1" stop-color="#141A29" />
    </linearGradient>
    <linearGradient id="accent" x1="325" y1="326" x2="776" y2="726" gradientUnits="userSpaceOnUse">
      <stop offset="0" stop-color="#FF6B9F" />
      <stop offset="0.52" stop-color="#9B6DFF" />
      <stop offset="1" stop-color="#37D7FF" />
    </linearGradient>
    <linearGradient id="badge" x1="660" y1="618" x2="866" y2="858" gradientUnits="userSpaceOnUse">
      <stop offset="0" stop-color="#FFE36B" />
      <stop offset="0.45" stop-color="#FF9C54" />
      <stop offset="1" stop-color="#FF5C87" />
    </linearGradient>
    <filter id="shadow" x="150" y="156" width="752" height="738" filterUnits="userSpaceOnUse" color-interpolation-filters="sRGB">
      <feFlood flood-opacity="0" result="BackgroundImageFix" />
      <feColorMatrix in="SourceAlpha" type="matrix" values="0 0 0 0 0 0 0 0 0 0 0 0 0 0 0 0 0 0 127 0" result="hardAlpha" />
      <feOffset dy="30" />
      <feGaussianBlur stdDeviation="34" />
      <feComposite in2="hardAlpha" operator="out" />
      <feColorMatrix type="matrix" values="0 0 0 0 0.0196078 0 0 0 0 0.027451 0 0 0 0 0.054902 0 0 0 0.48 0" />
      <feBlend mode="normal" in2="BackgroundImageFix" result="effect1_dropShadow_0_1" />
      <feBlend mode="normal" in="SourceGraphic" in2="effect1_dropShadow_0_1" result="shape" />
    </filter>
  </defs>

  <rect x="64" y="64" width="896" height="896" rx="224" fill="url(#bg)" />
  <rect x="64" y="64" width="896" height="896" rx="224" fill="url(#glowA)" />
  <rect x="64" y="64" width="896" height="896" rx="224" fill="url(#glowB)" />
  <rect x="64" y="64" width="896" height="896" rx="224" stroke="#F8FAFF" stroke-opacity="0.09" stroke-width="2" />

  <g filter="url(#shadow)">
    <g transform="rotate(-11 500 502)">
      <rect x="282" y="262" width="420" height="500" rx="86" fill="url(#cardBack)" />
      <rect x="282" y="262" width="420" height="500" rx="86" stroke="#F8FAFF" stroke-opacity="0.08" stroke-width="2" />
    </g>

    <g transform="rotate(-11 470 470)">
      <rect x="228" y="214" width="452" height="544" rx="96" fill="url(#cardFront)" />
      <rect x="228" y="214" width="452" height="544" rx="96" stroke="#F8FAFF" stroke-opacity="0.1" stroke-width="2" />

      <rect x="298" y="302" width="160" height="28" rx="14" fill="#F7F8FF" fill-opacity="0.94" />
      <rect x="298" y="358" width="120" height="22" rx="11" fill="#C0C8E5" fill-opacity="0.55" />
      <rect x="298" y="404" width="148" height="22" rx="11" fill="#C0C8E5" fill-opacity="0.3" />

      <path d="M516 338V526C516 551.405 536.595 572 562 572H636" stroke="url(#accent)" stroke-width="40" stroke-linecap="round" stroke-linejoin="round" />
      <path d="M516 526V628" stroke="url(#accent)" stroke-width="40" stroke-linecap="round" />
      <path d="M516 430H608C633.405 430 654 409.405 654 384V338" stroke="url(#accent)" stroke-width="40" stroke-linecap="round" stroke-linejoin="round" />
      <circle cx="516" cy="320" r="48" fill="#0E1320" stroke="url(#accent)" stroke-width="24" />
      <circle cx="516" cy="672" r="48" fill="#0E1320" stroke="url(#accent)" stroke-width="24" />
      <circle cx="654" cy="320" r="48" fill="#0E1320" stroke="url(#accent)" stroke-width="24" />

      <path d="M280 662H628" stroke="#F8FAFF" stroke-opacity="0.11" stroke-width="2" />
    </g>
  </g>

  <g>
    <circle cx="746" cy="742" r="126" fill="#0E1320" fill-opacity="0.44" />
    <circle cx="736" cy="732" r="126" fill="url(#badge)" />
    <circle cx="736" cy="732" r="125" stroke="#FFF7E8" stroke-opacity="0.28" stroke-width="2" />
    <path d="M674 733L716 775L800 687" stroke="#FFF9F0" stroke-width="40" stroke-linecap="round" stroke-linejoin="round" />
  </g>

  <g opacity="0.92">
    <path d="M772 220L782 246L808 256L782 266L772 292L762 266L736 256L762 246L772 220Z" fill="#FFE36B" />
    <path d="M214 758L222 778L242 786L222 794L214 814L206 794L186 786L206 778L214 758Z" fill="#37D7FF" />
  </g>
</svg>
